<svg width="14" height="12" viewBox="0 0 14 12" fill="none" xmlns="http://www.w3.org/2000/svg">
<path fill-rule="evenodd" clip-rule="evenodd" d="M5.30326 11.7141C7.21625 11.7141 8.85401 10.6509 9.53013 9.14375C9.5384 9.12536 6.81561 9.85135 6.90243 9.59471C6.9412 9.48012 8.61028 8.87038 9.8263 8.15919C10.5252 7.75041 10.8471 6.88509 10.8471 6.88509C10.8471 6.88509 9.66957 7.45679 9.0743 7.60182C7.87472 7.89411 6.81877 7.86264 6.81877 7.83218C6.81877 7.76633 8.57215 7.43317 11.0091 5.94812C12.1554 5.2496 12.4668 4.0464 12.4668 4.0464C12.4668 4.0464 11.2065 4.79708 10.4447 5.04491C8.63798 5.63264 6.98925 5.80975 6.98925 5.73022C6.98925 5.55995 8.44018 5.16096 9.97852 4.41557C10.7784 4.02801 11.4711 3.52167 12.2738 2.95859C13.5873 2.0373 13.8039 0.396484 13.8039 0.396484C13.8039 0.396484 12.5084 1.23205 11.8762 1.50953C9.26755 2.65451 6.9641 3.25512 5.30326 3.38514C2.79617 3.58143 0.745117 5.33068 0.745117 7.60182C0.745117 9.87298 2.78586 11.7141 5.30326 11.7141Z" fill="#89AAE3"/>
</svg>
