<svg width="14" height="14" viewBox="0 0 14 14" fill="none" xmlns="http://www.w3.org/2000/svg">
<path fill-rule="evenodd" clip-rule="evenodd" d="M10.0382 13.5429C8.86032 13.6032 7.51177 13.6032 7.05348 13.5429C3.47868 13.0726 0.62793 10.4589 0.62793 6.92608C0.62793 3.39323 3.55124 0.529297 7.15734 0.529297C10.7634 0.529297 13.6868 3.39323 13.6868 6.92608C13.6868 8.56917 13.0544 10.0676 12.0151 11.2005C11.7329 11.5081 12.1201 11.7239 12.5135 11.9431C12.8994 12.1582 13.2912 12.3765 13.0635 12.6881C12.8126 13.0314 11.4523 13.4705 10.0382 13.5429ZM6.23914 6.12648C6.23914 6.67847 5.78236 7.12597 5.21892 7.12597C4.65548 7.12597 4.1987 6.67847 4.1987 6.12648C4.1987 5.75627 4.40415 5.43309 4.70942 5.26034C4.727 5.74165 5.12274 6.12646 5.60837 6.12646H6.23914V6.12648ZM9.40121 5.26034C9.38364 5.74165 8.9879 6.12646 8.50227 6.12646H7.87149V6.12648C7.87149 6.67847 8.32827 7.12597 8.89172 7.12597C9.45516 7.12597 9.91194 6.67847 9.91194 6.12648C9.91194 5.75627 9.70649 5.43309 9.40121 5.26034Z" fill="#5269AD"/>
</svg>
