<svg width="14" height="14" viewBox="0 0 14 14" fill="none" xmlns="http://www.w3.org/2000/svg">
<g clip-path="url(#clip0_1432_4871)">
<path fill-rule="evenodd" clip-rule="evenodd" d="M3.1128 11.768C3.06798 11.7258 3.02365 11.6829 2.97983 11.639C0.666878 9.3261 0.666879 5.57605 2.97983 3.26311C5.29278 0.950145 12.6627 0.79541 12.6627 0.79541C12.6627 0.79541 13.6687 9.3261 11.3558 11.639C9.30158 13.6933 6.11385 13.9231 3.80604 12.3285L5.66559 10.0465L8.63826 9.40468L6.21169 9.1621L7.7538 7.59193L9.5092 7.20738L8.12113 6.79631L9.5092 4.29228L7.53481 6.50687L6.77238 5.43098L7.04077 7.20738L5.66559 8.75766L5.02813 6.79629V9.40468L3.1128 11.768Z" fill="#63BC5A"/>
</g>
<defs>
<clipPath id="clip0_1432_4871">
<rect width="13.0588" height="13.0588" fill="white" transform="translate(0.62793 0.529297)"/>
</clipPath>
</defs>
</svg>
