<svg width="14" height="12" viewBox="0 0 14 12" fill="none" xmlns="http://www.w3.org/2000/svg">
<path fill-rule="evenodd" clip-rule="evenodd" d="M10.7062 5.77209C10.7055 5.77107 10.7052 5.7698 10.7054 5.76855L11.5385 0.91061C11.5389 0.908373 11.5409 0.906738 11.5431 0.906738H11.8068C11.8088 0.906738 11.8106 0.908057 11.8112 0.909995L13.6882 6.85286C13.6888 6.8547 13.6881 6.85674 13.6866 6.85794L12.3027 7.93843C12.3006 7.94004 12.2976 7.93963 12.2961 7.93751L10.7062 5.77209ZM0.602539 8.99255C0.602539 8.99456 0.603835 8.99635 0.60575 8.99698L3.45852 9.92975C3.4599 9.93021 3.46143 9.92998 3.46262 9.92916L9.83923 5.52691C9.8403 5.52617 9.84102 5.52502 9.8412 5.52375L10.525 0.935519C10.5254 0.932703 10.5232 0.930173 10.5204 0.930173L4.87231 0.930173C4.87091 0.930173 4.86961 0.93079 4.86872 0.931859L0.603611 6.07706C0.602918 6.0779 0.602539 6.07895 0.602539 6.08005L0.602539 8.99255ZM4.64728 10.1674L7.76387 11.1883C7.76528 11.1888 7.76683 11.1885 7.76803 11.1877L11.4785 8.5261C11.4806 8.52465 11.4811 8.52182 11.4797 8.51973L10.0888 6.44983C10.0873 6.44766 10.0844 6.4471 10.0822 6.44858L4.64728 10.1674Z" fill="#C5B78C"/>
</svg>
