<svg width="174" height="204" viewBox="0 0 174 204" fill="none" xmlns="http://www.w3.org/2000/svg">
<path fill-rule="evenodd" clip-rule="evenodd" d="M121.345 0.202414C121.493 -0.00944165 121.785 -0.0609282 121.997 0.0874149L136.482 10.2299C136.694 10.3782 136.745 10.6702 136.597 10.882L116.436 39.674C126.237 42.8053 132.915 46.1828 132.915 46.1828C132.915 46.1828 116.593 74.2575 88.9102 74.2575C61.2271 74.2575 41.5558 48.0913 41.5558 48.0913C41.5558 48.0913 48.5309 43.64 58.8703 39.8222L36.757 13.4689C36.5909 13.2708 36.6168 12.9754 36.8148 12.8092L50.3605 1.4429C50.5589 1.27666 50.8542 1.3025 51.0203 1.50062L79.0193 34.8685C81.4167 34.5974 83.8592 34.4458 86.3239 34.4458C89.8664 34.4458 93.4045 34.7151 96.8586 35.1721L121.345 0.202414ZM126.821 75.5871C134.209 70.311 145.387 56.5402 145.387 56.5402C145.387 56.5402 173.941 79.1675 173.941 127.146C173.941 175.124 124.576 204 124.576 204C124.576 204 100.991 180.181 95.2007 149.987C89.411 119.793 103.766 86.2656 103.766 86.2656C103.766 86.2656 119.434 80.8632 126.821 75.5871V75.5871ZM47.2603 75.5871C39.8728 70.311 28.6943 56.5402 28.6943 56.5402C28.6943 56.5402 0.140625 79.1675 0.140625 127.146C0.140625 175.124 49.5055 204 49.5055 204C49.5055 204 73.091 180.181 78.8811 149.987C84.6708 119.793 70.3163 86.2656 70.3163 86.2656C70.3163 86.2656 54.6481 80.8632 47.2603 75.5871V75.5871Z" fill="url(#paint0_linear_1403_17479)"/>
<defs>
<linearGradient id="paint0_linear_1403_17479" x1="0.325292" y1="2.24242e-08" x2="115.076" y2="232.877" gradientUnits="userSpaceOnUse">
<stop stop-color="white"/>
<stop offset="1" stop-color="white" stop-opacity="0"/>
</linearGradient>
</defs>
</svg>
