<svg width="128" height="204" viewBox="0 0 128 204" fill="none" xmlns="http://www.w3.org/2000/svg">
<path fill-rule="evenodd" clip-rule="evenodd" d="M22.7869 0.232552C22.7475 0.118718 22.8323 0 22.9527 0L94.6033 0C94.6802 0 94.7484 0.0500386 94.7711 0.123429L127.681 106.451C127.716 106.564 127.632 106.678 127.513 106.678H79.8129C79.7547 106.678 79.7129 106.733 79.7288 106.79L107.086 203.094C107.14 203.281 106.895 203.403 106.778 203.247L0.462257 61.8642C0.375398 61.7487 0.457832 61.5837 0.602306 61.5837H43.8945C43.9547 61.5837 43.9969 61.5244 43.977 61.4674L22.7869 0.232552Z" fill="url(#paint0_linear_1403_15252)"/>
<defs>
<linearGradient id="paint0_linear_1403_15252" x1="0.561977" y1="-0.00267659" x2="134.004" y2="198.954" gradientUnits="userSpaceOnUse">
<stop stop-color="white"/>
<stop offset="1" stop-color="white" stop-opacity="0"/>
</linearGradient>
</defs>
</svg>
