<svg width="199" height="175" viewBox="0 0 199 175" fill="none" xmlns="http://www.w3.org/2000/svg">
<path fill-rule="evenodd" clip-rule="evenodd" d="M150.704 0.553158L151.331 55.6771L103.252 78.7574L102.659 26.7099L150.704 0.553158Z" fill="white"/>
<path fill-rule="evenodd" clip-rule="evenodd" d="M198.902 87.418L151.306 114.642L103.683 87.375L151.282 62.3722L198.902 87.418Z" fill="white"/>
<path fill-rule="evenodd" clip-rule="evenodd" d="M95.2192 87.418L47.6238 114.642L0 87.375L47.5991 62.3722L95.2192 87.418Z" fill="white"/>
<path fill-rule="evenodd" clip-rule="evenodd" d="M47.0835 0.330566L96.4842 24.7969L95.2212 78.1143L48.5777 55.0136L47.0835 0.330566Z" fill="white"/>
<path fill-rule="evenodd" clip-rule="evenodd" d="M152.054 173.667L102.653 149.201L103.916 95.8833L150.56 118.984L152.054 173.667Z" fill="white"/>
<path fill-rule="evenodd" clip-rule="evenodd" d="M48.7966 174.165L48.1687 119.041L96.2485 95.9612L96.8414 148.008L48.7966 174.165Z" fill="white"/>
</svg>
