<svg width="190" height="204" viewBox="0 0 190 204" fill="none" xmlns="http://www.w3.org/2000/svg">
<path fill-rule="evenodd" clip-rule="evenodd" d="M174.658 169.407C174.658 169.407 148.935 190.037 97.7465 181.5C58.9107 175.023 38.1976 132.212 38.1976 109.201C38.1976 54.6427 78.5776 42.2269 105.877 42.2269C133.177 42.2269 150.986 68.8426 150.986 89.4498C150.986 110.057 136.411 128.081 113.729 128.081C91.0475 128.081 84.3299 112.158 84.3299 97.5181C84.3299 82.8787 96.1742 77.721 106.976 77.721C117.778 77.721 121.477 86.9432 121.477 94.8693C121.477 102.796 115.327 105.634 110.198 105.634C105.068 105.634 104.561 103.046 102.598 100.327C100.634 97.6074 105.102 87.3133 97.7465 87.3133C90.3913 87.3133 89.0203 99.1473 89.0203 99.1473C89.0203 99.1473 91.7018 121.991 113.729 121.597C135.757 121.202 146.206 104.173 143.17 87.3133C140.133 70.4531 123.77 52.5373 95.053 56.1575C66.336 59.7777 54.6112 88.7935 59.7793 119.802C64.9475 150.81 102.095 168.776 131.302 162.312C160.51 155.849 189.601 134.704 189.601 81.0925C189.601 27.4811 143.17 -4.74417 87.8046 0.566738C32.4397 5.87762 -1.9283 54.2813 0.271557 112.439C2.47141 170.597 57.6565 202.272 104.321 203.904C150.986 205.537 179.593 178.524 179.593 178.524C179.593 178.524 186.027 172.787 183.504 168.307C180.982 163.827 174.658 169.407 174.658 169.407Z" fill="url(#paint0_linear_1403_14487)"/>
<defs>
<linearGradient id="paint0_linear_1403_14487" x1="0.373148" y1="-0.00537082" x2="108.998" y2="240.284" gradientUnits="userSpaceOnUse">
<stop stop-color="white"/>
<stop offset="1" stop-color="white" stop-opacity="0"/>
</linearGradient>
</defs>
</svg>
