<svg width="24" height="24" viewBox="0 0 24 24" fill="none" xmlns="http://www.w3.org/2000/svg">
<path d="M11.9994 22.8337C17.9826 22.8337 22.8327 17.9836 22.8327 12.0003C22.8327 6.01708 17.9826 1.16699 11.9994 1.16699C6.0161 1.16699 1.16602 6.01708 1.16602 12.0003C1.16602 17.9836 6.0161 22.8337 11.9994 22.8337Z" stroke="#808080" stroke-width="1.5" stroke-linecap="round" stroke-linejoin="round"/>
<path d="M11.999 15.2505C12.861 15.2505 13.6876 14.9081 14.2971 14.2986C14.9066 13.6891 15.249 12.8624 15.249 12.0005C15.249 11.1385 14.9066 10.3119 14.2971 9.70239C13.6876 9.0929 12.861 8.75049 11.999 8.75049C11.1371 8.75049 10.3104 9.0929 9.70093 9.70239C9.09143 10.3119 8.74902 11.1385 8.74902 12.0005C8.74902 12.8624 9.09143 13.6891 9.70093 14.2986C10.3104 14.9081 11.1371 15.2505 11.999 15.2505V15.2505Z" stroke="#808080" stroke-width="1.5" stroke-linecap="round" stroke-linejoin="round"/>
<path d="M1.16602 12.0005H8.74935M15.2494 12.0005H22.8327" stroke="#808080" stroke-width="1.5"/>
</svg>
